# xmcd
#
# Track frame offsets: 
#        150
#        12727
#        29612
#        51527
#        76740
#        91240
#        107802
#        132968
#        150441
#        178059
#        201428
#        219238
#        226700
#        240926
#        254732
#        271121
#        290613
#        306515
#
# Disc length: 4446 seconds
#
# Revision: 3
# Processed by: cddbd v1.5.2PL0 Copyright (c) Steve Scherf et al.
# Submitted via: ExactAudioCopy v1.1
#
DISCID=fd115c12
DTITLE=divers - Music Maker - The last and lost blues survivors - CD2
DYEAR=2005
DGENRE=Blues
TTITLE0=Neal Pattman - Momma Whoopin' Blues
TTITLE1=Carl Rutherford - Last Handloader
TTITLE2=Mother Pauline - El. J. Goins - El. J. Goins - Great Day
TTITLE3=Cootie Stark - Around My Bed
TTITLE4=John Dee Holeman - Hello Central
TTITLE5=Little Pink Anderson - See That My Grave Is Kept Clean
TTITLE6=Mr. Q - We
TTITLE7=Captain Luke and Cool John - Put On Your Red Dress
TTITLE8=Pura Fe' - Rise Up Tuscarora Nation
TTITLE9=Sol - Tribute To Gabe
TTITLE10=Guitar Gabriel - Hospital Blues
TTITLE11=Algia Mae Hinton - Buck Dance
TTITLE12=George Higgs - Greasy Greans
TTITLE13=Carl Rutherford - Flyin' High Walkin' Tall
TTITLE14=Branchettes - I Know I Have Been Changed
TTITLE15=Preston Fulp - I Shall Not Be Moved
TTITLE16=Essie Mae Brooks - Feel Like My Time Ain't Long
TTITLE17=Cora Mae Bryant - I Saw That Man
EXTD=
EXTT0=
EXTT1=
EXTT2=
EXTT3=
EXTT4=
EXTT5=
EXTT6=
EXTT7=
EXTT8=
EXTT9=
EXTT10=
EXTT11=
EXTT12=
EXTT13=
EXTT14=
EXTT15=
EXTT16=
EXTT17=
PLAYORDER=
